<?xml version="1.0" encoding="UTF-8"?>
<svg id="_ÎÓÈ_1" data-name="—ÎÓÈ_1" xmlns="http://www.w3.org/2000/svg" viewBox="0 0 736.6 470.94">
  <defs>
    <style>
      .cls-1 {
        fill: #7ac143;
      }
    </style>
  </defs>
  <path class="cls-1" d="M674.28,276.78l3.26-14.44c.02-.08.04-.16.07-.24l1.9-5.5-.59-3.15c-.1-.52,0-1.06.26-1.52l4.43-7.62s-.04,0-.07,0c-.04,0-.08.01-.12.01s-.08-.03-.12-.03c-.29-.02-.57-.07-.83-.2-.01,0-.03,0-.04-.01l-3.73-1.86c-.54-.27-.95-.75-1.13-1.33l-.93-3.03-1.64-4.51-2.45-2.27-3.17-.79c-.74-.18-1.33-.73-1.57-1.45l-2.29-6.87-3.56-7.76-5.31-2.45c-.21-.1-.4-.23-.57-.39l-3.03-2.79c-.2-.18-.36-.4-.48-.64l-1.68-3.36-2.54-2.35-3.04-1.74c-.25-.14-.47-.34-.65-.56l-3.07-3.95-3.94-2.91-6.25-2.45c-.61-.24-1.08-.74-1.29-1.36l-.57-1.7-3.23-3.87c-.18-.21-.31-.46-.4-.72l-.61-1.82-4.04-6.15-3.62.17c-.43.03-.87-.09-1.25-.31l-5.82-3.49c-.15-.09-.3-.21-.43-.33l-1.86-1.86c-.32-.32-.53-.73-.61-1.17l-.47-2.56c-.04-.21-.05-.43-.02-.64.02-.21.08-.42.16-.62l1.16-2.79c.07-.17.16-.33.28-.48l-5.78.97-10.12,1.18-9.73.7-6.92,1.15-12.17,1.64-10.35,1.19-.07,1.02.12,1.59.09,1.15.86,4.53,4.79,11.19c.05.11.09.23.12.34l5.59,23.07,2.28,6.8c.03.08.05.16.07.25l2.07,9.88,2.87,8.61,3.5,4.59c.23.3.38.66.43,1.03l.52,3.64,1.63.68c.77.32,1.29,1.04,1.36,1.88l.23,3.03c.02.32-.02.63-.13.93l-1.69,4.62-.79,2.16-.66,4.43-.18,2.16,2.16,5.82c.08.21.12.42.13.64l.47,7.68c.02.28-.02.56-.11.84h0s0,0,0,0l-.76,2.29,1.6.89c.12.07.2.18.31.27.14.11.29.21.39.35.09.12.12.27.19.4.07.14.16.27.2.43v.07s.02,0,.02,0v.05s1.09,4.77,1.09,4.77l2.42,3.63.69,1.03,1.31,1.31,10.52.21,46.38-2.79,7.7-.96c.09-.01.19-.02.28-.02l6.59.04c.79,0,1.49.42,1.88,1.06.13.21.22.44.28.69v-.16s-2.16-6.08-2.16-6.08c-.24-.68-.14-1.43.27-2.01l1.63-2.33c.48-.68,1.29-1.05,2.12-.92,0,0,0,0,0,0l1.74.24,6.63.92,1.89.12,2.44.15-.79-6.42c-.03-.25-.02-.51.04-.76ZM592.84,45.71l-1.34-1.5-2.84-.45-2.8,1.68c-.39.24-.85.35-1.31.31l-3.03-.23c-.53-.04-1.02-.27-1.4-.64l-1.96-1.96-7.54-.42c-.88-.05-1.65-.62-1.96-1.44l-2.04-5.52-2.62-1.46-2.57.86c-.18.06-.38.1-.57.11l-4.32.25-.09.35,1.2,1.2c.33.33.54.75.62,1.2l.47,2.79c.11.63-.07,1.26-.46,1.75-.13.16-.28.31-.46.43l-3.96,2.79c-.11.08-.23.15-.35.2l-5.59,2.56c-.21.1-.43.16-.66.19l-2.2.26-.51,4.76c-.06.57-.35,1.1-.79,1.47h0s0,0,0,0l-3.41,2.82-3.18,2.63-3.44,4.2.33,2.3c.05.37.01.76-.13,1.11l-1.16,3.03c-.08.22-.2.41-.34.59-.41.52-1.05.84-1.74.84h-6.75c-.72,0-1.4-.35-1.82-.95l-.35-.51s0,0-.01,0l-2.99,1.66.17,3.51c.04.8-.36,1.54-1,1.96-.21.14-.46.25-.72.31l-3.03.7c-.14.03-.28.03-.41.03-.3.01-.59-.02-.87-.12-.4-.15-.76-.42-1.02-.78l-1-1.4-1.46-1.22-2.27,1.14-2.23,4.05c-.14.25-.32.47-.53.64-.64.52-1.54.67-2.33.31l-2.56-1.16c-.34-.15-.63-.39-.86-.69l-1.31-1.75-3.83.52-7.89,1.32-3.31,2.02-1.19,3.75c-.05.16-.14.31-.23.45-.03.05-.05.11-.08.16-.14.2-.31.38-.51.52l-.3.21.38,1.13,1.12,2.45c.13.28.19.57.2.87,0,.3-.05.59-.16.88-.23.56-.67,1.01-1.23,1.23l-2.33.93c-.09.04-.19.07-.29.09l-3.29.82-1.7,1.28-.23,1.63,1.52,2.85c.2.37.28.78.26,1.2l-.23,3.26s0,0,0,0h0c-.07.93-.71,1.72-1.6,1.98l-1.63.47c-.45.13-.93.11-1.37-.05l-5.12-1.86-3.37-1.58-1.82.56-2.37,1.86-.37,1.33,1.52,2.69c.04.06.05.13.08.19.04.09.09.18.11.28.02.08.03.17.05.25.02.1.04.19.04.29,0,.09-.01.19-.02.28,0,.09,0,.18-.03.27-.03.13-.08.26-.14.39-.02.04-.02.09-.05.13l-1.12,2.24-.3,4.17c-.03.34-.14.67-.31.96-.2.34-.48.63-.83.82l-2.61,1.45-.1.12,8.84-.04h.23s9.85-.93,9.85-.93l10.09-.58v-3.5c0-.59.24-1.16.65-1.57.42-.41.98-.64,1.56-.64h.02l5.44.04,29.22-3.29,1.11-.1,73.27-7.08,3.05-1.52.23-.12,8.06-4.84,4.51-2.44v-1.71c0-.59.23-1.15.65-1.57l2.56-2.56,6.39-7.55c.08-.09.17-.18.26-.26l5.95-5.04,2.28-2.75-1.98-1.33-.19-.12c-.16-.1-.3-.22-.43-.35l-3.72-3.96-4.32-5.51c-.18-.23-.31-.48-.39-.76l-.68-2.39-2.93-1.65c-.39-.22-.7-.54-.9-.94l-1.16-2.33c-.14-.28-.22-.58-.23-.89l-.3-6.45-3.4-2.29-2.79-1.6-.28-.15c-.55-.3-.95-.82-1.1-1.44l-.51-2.16-1.74,1.27-3.85,3.63c-.1.1-.23.14-.35.21-.13.08-.25.19-.4.25-.28.1-.57.15-.87.14-.6-.03-1.16-.29-1.56-.74ZM509.41,319.2l4.48-1.76-.27-8.99-2.87-2.15c-.08-.06-.16-.13-.24-.21l-2.56-2.56c-.47-.47-.71-1.13-.64-1.8h0s.47-4.43.47-4.43c.11-1.02.9-1.84,1.93-1.97l14.67-1.86,36.81-4.19,9.82-.94,6.39-.17-.25-1.31-1.19-.66c-.25-.14-.47-.33-.65-.55l-.93-1.16c-.47-.59-.61-1.37-.37-2.08l.51-1.55.51-1.54-.42-6.93-2.21-5.98c-.11-.3-.16-.63-.13-.95l.23-2.79.72-4.8s0,0,0,0h0c.02-.15.06-.29.11-.44l2.39-6.53-.09-1.19-1.54-.64c-.72-.3-1.23-.96-1.34-1.73l-.62-4.32-3.37-4.43c-.15-.19-.26-.41-.34-.64l-3.03-9.08c-.03-.08-.05-.16-.07-.25l-2.07-9.89-2.29-6.86-.08-.33-5.35-22.05-.16-.66-4.82-11.24c-.06-.15-.11-.3-.14-.46l-.93-4.89c-.02-.08-.03-.16-.03-.25l-.23-3.03c0-.11,0-.21,0-.32v-.04s0-.42,0-.42l-12.05.96-40.01,3.72-9.22.55-.18,7.02.23,23.95-1.17,44.78-.23,20.05,3.93,26.84,2.13,19.99h1.6l1.1-2.33,2.05-6.16c.31-.92,1.17-1.51,2.1-1.51.2,0,.41.03.61.08l3.26.93c.59.17,1.08.57,1.36,1.12l4.42,8.61c.16.31.24.66.24,1.01v1.4h0ZM454.99,353.4c1.72.22,4.23.68,5.14.86.19.04.37.1.54.18l5.82,2.79c.36.17.66.44.89.77l.74,1.11h3.01c.45,0,.89.14,1.25.39l.92-1.25c-.19-.08-.38-.19-.54-.32l-4.41-3.57-7.77-1.08c-.35-.05-.68-.18-.97-.38l-4.66-3.26c-.85-.59-1.17-1.7-.78-2.66l1.63-3.96c.16-.4.43-.73.77-.96,0-.02,0-.04,0-.05v-.7c0-.86.49-1.61,1.21-1.98-.13,0-.26-.02-.39-.05l-4.42-.93c-.63-.13-1.18-.54-1.49-1.11l-1.4-2.56c-.45-.83-.33-1.86.31-2.56l2.56-2.79c.05-.06.11-.11.17-.17l2.69-2.37-.88-1.94c-.04-.09-.08-.19-.11-.29l-1.47-5.02-4.49-4.19c-.53-.5-.79-1.23-.68-1.95l1.43-9.44-.94.12-11.95,1-35.02,1c-.99,0-1.92-.63-2.19-1.61l-.66-2.3c-.07-.26-.1-.53-.08-.8l.99-11.52c.03-.31.12-.61.27-.89l4.94-8.89,7.03-12.22-.86-1.93c-.15-.34-.21-.71-.18-1.07.03-.36.15-.72.35-1.04.38-.59,1.02-.96,1.71-1l.33-1.52-2.22-1.78c-.45-.36-.74-.88-.81-1.44-.02-.19-.03-.38,0-.57l.25-2.02-2.71-6.02s-.01-.08-.03-.11c-.08-.21-.15-.43-.16-.66l-.35-5.64-13.57-.18-26.53,1.27-1.02.05h-.06l-29.78.04.02,11.57.97,13.23.89,5.07.62,1.01,2.78,4.56c.14.23.24.49.29.76l1.22,6.7,3.45,4.36,2.46,3.11c.28.35.44.77.47,1.22l.27,3.79.4.4c.46.46.69,1.1.64,1.75l-.99,12.18c-.03.33-.13.66-.3.95l-3.51,5.94,1.38,1.77h0s0,0,0,0c.43.55.57,1.27.39,1.94l-.94,3.44-.97,10.35c-.02.23-.08.45-.17.66l-1.76,4.11.14,1.79,3.85-1.25c.19-.06.39-.1.6-.11l11.64-.47c.27-.02.55.03.81.12l14.73,5.06,8.53,1.5,2.74-1.07-.14-.08c-.76-.45-1.18-1.31-1.07-2.19.1-.79.59-3.42,2.83-3.97.61-.15,2.94-.91,4.26-1.35.72-.25,1.52-.09,2.1.39l1.41,1.15,1.25-.68c.46-.25.99-.32,1.5-.23l4.66.93c.61.12,1.14.5,1.47,1.03l2.1,3.49c.15.25.25.53.29.83l.21,1.49,4.74.34c.53.04,1.03.27,1.41.64l2.56,2.56c.67.68.84,1.71.42,2.56l-1.16,2.33c-.1.19-.22.37-.36.52l.11.11,10.91,4.61,3.37-1.23,1.03-2.57c.26-.66.83-1.16,1.52-1.33l3.24-.81,2.18-1.78c.79-.65,1.92-.67,2.73-.06l1.86,1.4c.39.29.67.71.8,1.18l.67,2.4,1.07-1.61c-.3-.2-.55-.48-.72-.82-.33-.63-.33-1.37-.01-2.01l.87-1.74-.16-1.44c-.12-1.12.61-2.15,1.7-2.4l2.33-.54,1.16-1.32c.43-.5,1.06-.74,1.72-.76.66.02,1.27.32,1.68.83l.93,1.16c.34.42.51.96.48,1.5-.04.75-.01,1.6.05,2.21ZM657.39,381.27l-.8-.3.52,1.18.28-.88ZM623.57,120.02c.4.31.67.74.79,1.22.26.03.52.07.76.11l2.42-3.81c.28-.44.71-.77,1.22-.93l3.03-.93c.31-.1.65-.12.97-.08l1.62.23,1.64-3.61c.13-.28.31-.53.55-.74l3.66-3.26.48-2.09v-3.11h-.04s-2.87,2.3-2.87,2.3c-.38.3-.85.47-1.34.48l-11.25.23-17.13,2.71-14.09,1.32c-.09.02-.16.07-.25.08l-73.39,6.93-1.3.13-29.32,3.3c-.09,0-.18,0-.26.01l-3.34-.02v3.36c0,1.17-.92,2.14-2.09,2.21l-12.11.7-9.93.92h-.22s-13.85.28-13.85.28l-.28,6.1c0,.18-.05.36-.1.53,0,.01,0,.03,0,.05v.02s0,.02,0,.02l-.07.2-2.89,8.98c-.08.25-.21.46-.36.66l-1.19,3.52-1.87,6.08-.44,3.53c-.09.7-.5,1.31-1.12,1.66l-4.11,2.3,1.35,3.3c.08.21.14.42.15.65,0,.08-.01.17-.01.25,0,.13,0,.26-.02.39v.03s0,0,0,0v.02s-1.24,5.96-1.24,5.96l7.2-.07,34.53-2.79,7.93-.33c.1-.02.19-.07.3-.07l11.17-.53,1.19-.11,38.75-3.61,4.86-.39,9.44-.86s.07-.03.11-.03l12.34-1.28,12.04-1.62,5.18-.86.35-5.23c.04-.61.33-1.18.81-1.57l2.56-2.09c.26-.21.57-.36.89-.44l2.53-.6.68-3.91c.1-.6.46-1.14.97-1.47l6.05-3.96c.14-.09.28-.16.44-.22l5.23-1.96,5.76-4.87c.14-.12.3-.22.47-.31l5.3-2.55.71-3.36c.09-.42.3-.81.6-1.11l5.59-5.59c.28-.28.64-.49,1.03-.58l.93-.23c.33-.08.67-.09,1-.02.33.07.64.21.91.42ZM460,337.65c-.16.65-.59,1.16-1.15,1.44h3.31l1.23-2.13-1.1-1.65c-.19-.29-.32-.62-.36-.97l-.12-.98-1.02,1.11-.79,3.17ZM479.59,316.99c.26.04.51.13.74.25l1.59.89h5.91l.34-.37-2.04-21.16-3.95-26.92c-.02-.11-.02-.23-.02-.35l.23-20.25,1.17-44.73-.23-23.9.03-1.37-.04-5.45-5.62.17-34.58,2.79-10.53.11-.09,2.78c0,.09-.03.17-.04.25-.01.1-.02.19-.05.28-.04.13-.09.25-.15.37-.04.08-.07.16-.11.23-.08.13-.19.24-.29.35-.05.05-.08.1-.14.15-.17.14-.36.27-.57.36l-3.21,1.34-3.06,5.86.48.96c.15.31.23.65.23.99v3.62c0,.24-.04.47-.11.69-.21.65-.73,1.19-1.41,1.41l-3.25,1.09-4.21,6.05.64,1.91c.21.62.13,1.29-.2,1.83-.11.18-.24.35-.4.5l-3.71,3.42-1.2,8.12-.47,1.89,1.43,2.15c.44.66.49,1.48.16,2.17-.11.23-.25.44-.44.63l-.88.88,1.33,2.88c.11.23.17.47.19.73l.58,6.25s0,.08,0,.12c0,.18,0,.35-.03.52-.02.08-.05.14-.08.22-.04.12-.07.25-.12.36l-1.7,3.29.36,6.68,2.79,6.21c.17.37.23.78.18,1.18h0s-.18,1.41-.18,1.41l2.32,1.86c.65.53.96,1.37.78,2.19l-.99,4.61c-.1.46-.34.86-.66,1.16l.19.43c.14.32.21.67.19,1.02-.02.34-.11.69-.29.99l-7.58,13.17-4.69,8.45-.91,10.64.07.26,33.18-.94,13.65-1.24.62-.06h0s0,0,0,0c.79-.09,1.57.24,2.04.87l.66.88.33.44s0,0,0,0h0s0,.02.01.03c.34.47.49,1.05.4,1.63h0s0,0,0,0l-1.47,9.71,4.08,3.81c.29.27.5.61.61,1l1.58,5.36.28.5,2.71-4.4c.58-.95,1.79-1.31,2.8-.85l1.82.83,8.99-2.57c.31-.09.63-.11.95-.06l3.03.47ZM452.67,114.21l.76-1.52-.76-1.2-2.05.23-.63.08s-.08,0-.11,0c-.05,0-.11,0-.16,0-.01,0-.02,0-.04,0-.3,0-.59-.06-.86-.18,0,0-.01,0-.02,0-.28-.13-.53-.3-.74-.54l-2.63-2.96c-.18-.2-.31-.42-.41-.67l-2.3-5.93c-.18-.47-.2-.98-.05-1.46h0s0,0,0,0l1.01-3.29-2.4-3.74c-.07-.11-.14-.23-.19-.36l-2.49-6.08-5.34-.8c-.4-.06-.77-.22-1.08-.48l-9.22-7.57c-.2-.17-.37-.36-.5-.59l-3.29-5.6c-.28-.48-.37-1.05-.26-1.59h0s0,0,0,0l.99-4.61c.02-.11.06-.22.1-.33l3.22-8.37.64-3.42-2.06-1.03-8.78-.63c-.68-.05-1.31-.41-1.69-.98l-1.31-1.97c-.26-.4-.39-.87-.37-1.35l.26-5-6.86-4.57c-.13-.09-.25-.19-.36-.3l-10.53-10.86c-.24-.25-.42-.55-.52-.88l-3.29-10.53c-.04-.13-.07-.26-.08-.39l-.66-5.27c-.02-.18-.02-.36,0-.53.02-.18.06-.35.12-.52l.35-.95.47-1.29-3.61-3.67c-.16-.16-.3-.35-.4-.56l-.97-1.94-9.69.85-14.25.66-36.57,1.32h-.56s-30.04.61-30.04.61l.23.46c.07.13.1.28.14.42.01.05.04.1.05.15.04.21.06.43.03.65l-.25,2.52,3.2,4.94.1.13,4.4,5.64c.05.06.07.13.11.19l3.36,2.98,2.58.26c.36.04.71.16,1.01.36l1.98,1.32c.62.41.99,1.1.99,1.84h0v4.28h0c0,.64-.28,1.25-.76,1.67l-2.07,1.81-.34,1.71,2.43,4.05,3.33,3.94,3.41,2.48c.5.36.82.92.9,1.53l1.98,16.79c.01.1.02.2.02.3h0s0,.3,0,.3l-.97,50.72.31,6.25v.19s.52,7.73.52,7.73l31.47-.62,33.56-.99,45.74-1.97c.81-.02,1.56.37,1.98,1.05l2.63,4.28c.29.48.4,1.05.29,1.6l-.66,3.29c-.1.49-.35.93-.73,1.25h0s0,0,0,0l-4.06,3.47-.24,1.05,6.02.45,5.65-1.09,2.46-7.22-.2-7.72c-.02-.86.45-1.65,1.22-2.03l2.08-1.05.19-.23c.1-.12.21-.23.33-.33l3.14-2.54c.1-.08.2-.15.32-.21l1.91-1.06.24-3.41c.02-.29.1-.57.23-.83ZM424.38,180.02c.24-.46.63-.82,1.11-1.02l2.46-1.03-.3-3.66c-.08-.93.44-1.8,1.28-2.19l2.4-1.11.02-.02,1.12-5.04-1.83-4.48c-.11-.26-.16-.53-.16-.8-.02-.8.4-1.57,1.13-1.98l4.84-2.71.33-2.61c.02-.13.04-.25.08-.38l2.17-7.11-3.51.48c-.1.01-.2.02-.3.02-.05,0-.11,0-.16,0l-8.89-.66c-.64-.05-1.24-.37-1.62-.9-.38-.52-.52-1.18-.38-1.81l.99-4.28c.11-.46.36-.88.72-1.19h0s0,0,0,0l4.03-3.45.34-1.69-1.5-2.43-44.46,1.92-33.62.99-30.86.61,1.68,7.21c.04.16.06.33.06.5v11.71l1.96,15.67c.01.09.02.17.02.26l.32,53.47,1.44,1.22,3-1.38c.06-.03.14-.02.2-.04.23-.08.46-.15.7-.15,0,0,.02,0,.02,0,.29,0,.58.06.85.17l3.95,1.65c.78.32,1.31,1.07,1.36,1.91l.03.43.82,13.65,29.86-.04,27.56-1.32h14.48s1.05-1.89,1.05-1.89l-.48-5.19-1.82-3.93c-.29-.63-.27-1.35.04-1.95.1-.2.24-.38.4-.55l.69-.69-.97-1.45c-.35-.52-.46-1.16-.31-1.77l.66-2.63,1.27-8.68c.04-.25.12-.49.23-.71.12-.22.27-.42.46-.6l3.23-2.98-.54-1.6c-.22-.66-.12-1.39.28-1.97h0s0,0,0,0l5.27-7.57c.27-.39.66-.68,1.12-.84l2.43-.81v-1.5l-.75-1.51c-.32-.64-.31-1.39.02-2.02h0s3.95-7.57,3.95-7.57ZM345.49,313.04l.86-10.65-.26-.26h0c-.09-.1-.15-.22-.22-.33-.08-.11-.17-.2-.22-.32-.11-.24-.18-.5-.19-.76l-.28-3.93-2.43-3.07-3.4-4.3c-.11-.14-.21-.3-.28-.46-.07-.16-.13-.34-.16-.52l-1.25-6.84-2.79-4.56-.62-1.01h0s0,0,0,0c-.14-.24-.24-.5-.29-.77l-.99-5.6c-.01-.07-.02-.15-.03-.22l-.99-13.5-.05-13.89-.86-14.72-1.77-.74-3.4,1.57c-.78.36-1.71.24-2.36-.32l-2.13-1.82c-.29-.04-.58-.11-.84-.26l-3.71-2.17-4.34-1.24c-.17-.05-.34-.12-.49-.21l-4.61-2.63c-.24-.13-.44-.31-.62-.52l-2.5-3.05-.52-.13-1.42,1.82c-.42.54-1.06.85-1.75.85h-5.93c-.89,0-1.69-.53-2.04-1.34l-.28-.65-2.94,2.21c-.64.48-1.5.58-2.23.25l-2.53-1.13h-4.09l-.54,1.99c-.17.61-.58,1.12-1.15,1.4l-1.76.88-.88.44c-.12.06-.25.07-.38.11-.14.04-.28.11-.43.12-.28.02-.56,0-.83-.09l-.66-.2-3.62-1.11-5.19-1.94-5.71-.95c-.67-.11-1.25-.52-1.57-1.11l-.4-.73-.73,1.65-.83,1.86c-.13.28-.32.52-.55.72-.15.14-.3.27-.48.36l-1.98.99c-.56.28-1.2.31-1.78.09l-6.92-2.63c-.6-.23-1.07-.71-1.29-1.31l-.79-2.16h-2.07c-.27,0-.53-.05-.78-.14l-1.3-.49-2.28,2.28c-.58.58-1.43.79-2.2.56l-3.29-.99c-.94-.28-1.58-1.14-1.58-2.12v-1.27c-.35-.16-.66-.4-.89-.71l-3.11-4.25-3-.6-1.7,1.53-.76.69c-.14.13-.31.21-.47.3-.28.15-.58.26-.9.27-.49.03-1-.11-1.42-.42l-3.2-2.33-.41-.07-5-.83c-.19-.03-.38-.09-.55-.17l-3.24-1.47-5.51-.31c-.61-.03-1.18-.32-1.57-.79-.39-.47-.58-1.08-.51-1.69h0s0,0,0,0l.44-3.74c-.4.38-.94.61-1.53.61h-2.96c-.47,0-.93-.15-1.3-.42-.09.1-.19.18-.3.26-.2.16-.42.3-.66.38l-.99.33c-.59.2-1.23.14-1.78-.17l-.82-.46-2.14-1.19c-.13-.07-.24-.15-.35-.24l-6.26-5.27c-.42-.35-.69-.84-.77-1.38l-.33-2.3c-.02-.12-.02-.25-.02-.37h0s.66-25.68.66-25.68l1.85-32.05-42.52-1.56-30.82-1.48-2.11,24.8-5.6,79.97-3.3,34.3c-.11,1.18-1.14,2.14-2.33,2l-41.81-2.3-50.56-4.7.42,2.53,1.18.3c.21.05.42.14.61.25-.3-.03-.6-.06-.9-.1.14,2.62,1.76,3.69,3.74,4.99.76.5,1.53,1.02,2.23,1.64l1.42,4.25.97.47c.08.19.14.38.23.57.37.85.79,1.79.98,2.98,5.39,2.38,8.2,6.04,11.17,9.92.66.87,1.35,1.75,2.08,2.66.47.57,1.02,1.06,1.62,1.57.77.67,1.57,1.36,2.27,2.33.49.68.89,1.48,1.27,2.26.46.92.93,1.87,1.45,2.36.75.72,1.92,1.15,3.05,1.57.95.35,1.84.68,2.56,1.19,1.59,1.13,2.87,2.58,4.1,3.97.31.35.61.69.91,1.02.02.03.04.05.07.08l.18,1,2.99,5.97c-.03.21-.08.47-.09.69.04.01.08.03.12.04.16.06.29.13.44.19l1.07,2.14c.15.31.23.65.23.99v11.13l2.89,5.98,2.76,2.88c.52,1.01.95,2.09,1.14,3.3,2.02.55,3.59,1.7,4.93,3.04l.75.79c.61.67,1.18,1.36,1.73,2.03,1.19,1.45,2.31,2.82,3.64,3.76.76.53,1.83.69,2.97.85.98.14,1.98.3,2.95.69.09.18.15.38.18.58l2.07,1.2s.03.04.05.06c.43.52.88,1.07,1.39,1.42.78.54,1.56,1.14,2.36,1.74,3.01,2.29,6.13,4.66,9.86,4.74,2.77-2.29,6.41-5.59,7.92-8.84.68-1.47,1.3-3,1.89-4.47,1.07-2.66,2-4.95,3.06-6.34,2.12-2.77,5.89-4.33,9.03-3.66,1.04-1.73,2.45-2.6,4.19-2.6,1.42,0,2.81.58,4.16,1.13.79.33,1.54.64,2.24.8,6.26,1.51,12.08,1.87,15.7.96l.75-.19.53.57c1.17,1.25,1.87,2.37,2.56,3.47.67,1.07,1.35,2.17,2.54,3.5.51.05,1.08.27,1.47.57.1.08.21.19.32.27l.43.51,3.32,2.96c1.1,1.14,2.12,2.28,2.87,3.19.99,1.19,2.05,2.26,3.08,3.29l.1.92,2.07,2.26c.28.3.47.68.54,1.08l1.12,5.81,7.59,17.47c.15.34.21.7.18,1.07l-.12,1.44,4.26,2.62c.05.14.1.29.15.43.12.36.24.71.36,1.09.38.22.87.41,1.37.6.01,0,.02,0,.03.01l4.55,8.48,4.41,5.66,2.1.84c.27.5.58.96.83,1.48.99.37,2.01.76,2.98,1.25l1.5,2.1c.4.55.52,1.26.32,1.92l-1.57,5.29.03.04,1.34.67c.82.41,1.3,1.28,1.21,2.19l-.47,4.89c-.05.51-.28.99-.64,1.36h0s.33,1.17.33,1.17l3.91,2.35c.53.32.91.85,1.03,1.47l1.8,8.99,2.51,4.63,3.6,1.61c.05.31.08.61.09.86,0,.08.01.18.02.27.91.01,1.86.07,2.82.18l3.52,1.57,2.43.53c.81.63,1.49,1.43,1.97,2.44,5.36-.25,8.19,2.3,10.63,4.54.5.46,1,.92,1.52,1.35.83.09,1.67.14,2.56.14,1.59,0,3.05-.15,4.48-.29,1.32-.13,2.57-.26,3.81-.26.56,0,1.07.04,1.58.09l6.45,4.42.7-.44s.06.06.09.09c1.08,1.11,2.05,2.11,3.24,2.6.05-.2.13-.39.26-.57.57-.87,1.58-.95,2.19-.96-1.02-1.66-1-3.65-.98-5.46.01-1.2.02-2.44-.25-3.54-.2-.8-.69-1.56-1.21-2.37-.62-.95-1.32-2.04-1.66-3.38-.37-1.42-.43-2.99-.49-4.5-.06-1.51-.12-2.93-.46-4.11-.19-.68-.75-1.36-1.33-2.08-1.32-1.62-3.13-3.85-1.49-7.48l.21-.47.48-.2c1.14-.48,1.57-1.82,2.14-3.98.04-.16.08-.32.13-.48-1.12.13-2.18-.07-3.27-.29-.18-.04-.38-.07-.57-.11l1.99-6.91c.69.26,1.44.44,2.37.44.39,0,.81-.03,1.25-.09.19-1.92.9-3.33,1.54-4.59.58-1.15,1.09-2.16,1.25-3.52-.36-.5-.67-.97-.96-1.4-.53-.8-.95-1.44-1.39-1.79-.15-.12-.34-.14-.81-.17-.89-.05-2.38-.13-3.4-2.2l-.15-.31c.04-.2.08-.39.18-.58l.4-.8.23-.1c1.57-.7,3.64-1.09,5.82-1.09,1.51,0,2.96.18,4.23.53.24-.59.6-1.12.99-1.6-1.68-1.13-1.83-2.62-1.85-3.94l.15-.21c-.05-.03-.1-.07-.15-.1,0-.03,0-.07,0-.1,0-.82,0-1.59-.29-2.42l-1.99-5.56,4.17,4.19c.92.93,2.42.16,3.96-.6,1.13-.56,2.19-1.09,3.25-1.09.44,0,1.08.1,1.66.56.17-.5.09-1.18-.09-2.26-.26-1.54-.58-3.46.79-5.16l1.05-1.3,1.02,1.32c1.68,2.17,3.66,2.97,5.15,2.3l-1.36-1.47c.98-.97.6-1.88-1.05-4.11-1.1-1.49-2.77-3.75-.84-5.53l.26-.24.35-.08c.46-.1.88-.15,1.28-.15,1.82,0,2.73,1.01,3.3,1.96-.07-.41-.04-.84.14-1.27.3-.7.94-1.2,1.92-1.48l1.54-.44.15,1.59c.11,1.22.39,1.46.39,1.46.43,0,.94-.17,1.44-.34.99-.34,2.14-.65,3.06-.32,1.05.37.98,1.44.9,2.22.99-.05,2.35-.63,2.63-.83-.18.13-.5.61-.34,1.21l1.16-.31.16-1.39s0,0,.01,0l1.23.15v.35c.09.07.16.14.23.21.11-1.11.5-2.29,1.92-2.61l.19-.04h.19c1.12.09,1.87-.17,2.77-.48.89-.3,1.89-.65,3.24-.65.35,0,.71.02,1.07.07,1.47-1.57,3.33-2.64,5.14-3.69,3.44-1.99,6.41-3.71,6.54-8.38l.03-1.1,1.09-.17c1.23-.19,1.89-.98,2.72-1.98.68-.81,1.43-1.7,2.54-2.3-.44-1.19-.9-2.22-1.34-3.22-1.16-2.6-2.15-4.85-2.15-8.5v-.38l.2-.32c.27-.44,1-1.6,2.21-1.6,1.03,0,1.62.79,2.04,1.37.12.16.3.41.44.54.19-.2.47-.62.66-.92.75-1.14,1.78-2.7,3.61-2.7.85,0,1.7.34,2.59,1.05l.5.4v.64c0,.46,0,.92.02,1.39.03,1.39.06,2.8-.21,4.02.73-.09,1.46-.25,2.13-.42.01.08.03.16.04.24l1.19-.55c.48-.12.86-.22,1.14-.24h.25c.94-.01,1.55.49,1.91.79.39.32.29.26.52.21.78-.19,1.72-.86,2.72-1.57.3-.22.62-.44.95-.67-.25-.53-.46-1.07-.69-1.6,0,0,.01,0,.02,0l7.38-1.99-.12-3.47s.02-.05.02-.08c0-.29.05-.58.16-.85,0,0,0-.01,0-.02l1.84-4.29.96-10.19c.01-.13.03-.25.07-.37l.7-2.55-1.62-2.09c-.14-.18-.25-.38-.33-.58-.23-.62-.18-1.32.17-1.91l4.02-6.8ZM734.04,403.53c-.1-.3-.19-.58-.28-.86l-.53-3.12-6.34-11.55-5.07-8.29-3.66-7.53-3.93-3.93c-.22-.22-.39-.47-.5-.76l-4.19-10.71c-.26-.65-.19-1.39.18-1.98l1.16-1.86c.06-.1.13-.2.21-.29l.6-.69-1.4-2.51-5.56-5.11c-.06-.05-.11-.11-.16-.17l-6.99-7.92c-.09-.1-.17-.22-.25-.34l-5.36-9.08-7.7-13.53c-.06-.1-.1-.2-.14-.3l-5.37-14.03c-.03-.08-.06-.16-.08-.24l-2.61-10.25-4.48-.29-1.36-.09-5.95-.82-1.25-.17-.2.28,1.94,5.44c.1.29.15.6.12.91l-.47,6.28c-.05.67-.4,1.29-.96,1.67,0,0,0,0-.01,0-.25.17-.52.26-.81.31-.07.01-.14.02-.21.03-.07,0-.14.03-.22.03-.21,0-.43-.03-.64-.1,0,0-.02,0-.02,0l-3.72-1.16c-.44-.14-.82-.41-1.09-.76-.27-.35-.44-.78-.47-1.24l-.12-2.11-4.36-.03-7.7.95-46.7,2.81-11.58-.23c-.57-.01-1.12-.24-1.52-.65l-2.09-2.09c-.1-.1-.2-.22-.28-.34l-.8-1.2-2.11-3.17h-7.81l-3.55.34-6.03.58-36.74,4.19-12.9,1.64-.17,1.62,1.7,1.7,3.6,2.7c.07.06.11.14.17.21.17.16.34.32.45.53.06.11.06.23.1.34.06.18.15.35.16.54l.66,9.05,1.91-.34,8.44-2.97c.18-.06.37-.1.56-.12l.53-.04c-.06.12-.11.25-.17.37.1.25.2.49.3.72.16.39.32.76.45,1.14.89-.25,1.8-.46,2.68-.68,2.71-.65,5.31-1.28,7.1-2.55l3.85-.57c.28-.04.56-.03.83.03l8.02,1.88c.1.18.21.35.27.55.17.56.14,1.14-.07,1.74,1.26.19,2.26.62,3.16,1.01.59.25,1.13.49,1.72.65.14-.72.4-1.27.8-1.67.05-.05.11-.1.17-.14l8.97,4.3c.19.09.37.21.53.35l2.01,1.82,3.81,1.48-.48.86c-.21.38-.42.69-.63.95,2.56,1.41,3.83,4.03,4.83,6.65.87-.42,1.75-.42,2.24-.42.24,0,.48,0,.73.01.83.03,1.75.09,2.59-.35.59-.31.95-.89,1.37-1.56.29-.47.63-.99,1.08-1.43l1.72-.94.6,2.54c.7-.17,1.02-.82.99-1.23,0,.1.04.24.09.39.09-.12.17-.23.26-.35,1.22-1.67,2.75-3.74,5.44-5.11.55-.28,1.07-.45,1.56-.58l-.16-.35c-.05-.09-.09-.17-.12-.26l-.1-.25v-.27s.01-.07.02-.1h0s1.32.11,1.32.11h.01s.09-1.19.09-1.19c-.21,0-.33.06-.34.06.04-.02.17-.09.46-.3l1.01.05c-.08-.25-.1-.52-.09-.78.23-.19.46-.39.77-.66.02-.02.04-.04.07-.06.43-.46.73-.87,1-1.23.6-.81,1.17-1.57,2.4-1.95.88-.28,2.12-.42,3.68-.42s3.31.14,4.62.37c1.9.34,9.27,3.38,10.2,4.11.98.77,1.42,1.89,1.8,2.87.31.79.6,1.53,1.11,1.96.69.58,1.61.98,2.5,1.36,1.86.81,4.56,1.99,4.01,5.46,2.73.96,4.53,2.76,6.28,4.51,1.55,1.56,3.02,3.02,5.09,3.82l.73.28c.65-.31,1.49-.65,2.45-.65.62,0,1.22.15,1.77.43l.32.24c1.16,1.17,1.95,2.6,2.71,3.98,1.02,1.84,1.98,3.58,3.66,4.41l.46.23.19.48c.78,1.98,1.21,4,1.44,6.03v8.44c-.03.29-.05.59-.08.88,0,.04,0,.08-.02.11l-1.96,6.3.39,3.33.44,1.64s.03-.02.05-.02l.95-.38-.19.37.84.52c1.55.96,2.94,1.08,4.27,1.19.92.08,1.9.17,2.78.57l.24-.1-.13.15c1.08.54,2.01,1.58,2.53,3.71.07.2.1.38.14.56l-2.96,5.03c-.04.06-.12.13-.14.19-.01.03-.02.08-.03.12l-1.15,1.96c-.07.12-.15.23-.23.33l-1.71,1.97,1.42,1.48c-.16.13-.34.26-.54.35.29.3.72.56,1.28.9.44.27.91.58,1.36.95l.2.21.96,1.14c.19.34.35.72.44,1.17l.09.23c.3.74.59,1.47.9,2.2.39-.17.81-.31,1.22-.46l.21.25c.1.11.18.24.25.37l4.11,7.54,4.09,5.46c.11.14.2.3.27.47l2.61,6.12,1.5-1.96c.7-.91,1.98-1.13,2.95-.52l2.56,1.63c.27.17.5.4.68.68l3.72,5.82c.16.24.26.52.31.8l.84,4.64,1.08,1.53s-.03.06-.05.09c.15.26.3.52.46.79.24.41.48.81.72,1.22.53.29,1.12.42,1.95.42.4,0,.8-.03,1.21-.05.47-.03.95-.06,1.44-.06.94,0,1.73.11,2.5.34,3.1.94,4.09,2.56,5.13,4.27.38.62.77,1.27,1.3,1.94,1.11,1.42,2.22,2.78,3.31,4.11.93,1.14,1.82,2.24,2.7,3.34l.69,2.91c.02.09.04.18.05.27l.37,3.32.67.57.69.26,2.22-.89,1.75-1.95c.17-.19.38-.32.59-.44.16.29.3.6.41.95l.77.77c.76.5,1.41.75,2,.75.98,0,1.9-.72,2.97-1.55,1.33-1.03,2.96-2.3,5.24-2.45.14-1.02.68-1.84,1.15-2.55.44-.67.83-1.25.9-1.95.08-.78-.17-1.71-.44-2.71-.33-1.23-.7-2.63-.51-4.06.18-1.41.9-2.7,1.6-3.96.56-1.01,1.09-1.97,1.31-2.9.03-.12.05-.26.07-.39l.27-.15.3-3.21-.11-.31c.58-8.46-1.03-21.66-2.43-25.99Z"/>
</svg>